<svg width="21" height="38" viewBox="0 0 21 38" fill="none" xmlns="http://www.w3.org/2000/svg">
<path d="M4.95771 12.1534C4.54293 12.1534 4.16651 12.0753 3.82844 11.919C3.49038 11.7599 3.22191 11.5312 3.02305 11.233C2.82418 10.9318 2.72475 10.5682 2.72475 10.142C2.72475 9.76705 2.79861 9.46307 2.94634 9.23011C3.09407 8.99432 3.29151 8.80966 3.53867 8.67614C3.78583 8.54261 4.05856 8.44318 4.35685 8.37784C4.65799 8.30966 4.96055 8.25568 5.26452 8.21591C5.66225 8.16477 5.98469 8.12642 6.23185 8.10085C6.48185 8.07244 6.66367 8.02557 6.77731 7.96023C6.89378 7.89489 6.95202 7.78125 6.95202 7.61932V7.58523C6.95202 7.16477 6.83697 6.83807 6.60685 6.60511C6.37958 6.37216 6.03441 6.25568 5.57134 6.25568C5.09123 6.25568 4.71481 6.3608 4.44208 6.57102C4.16935 6.78125 3.97759 7.00568 3.8668 7.24432L2.91225 6.90341C3.08271 6.50568 3.30998 6.19602 3.59407 5.97443C3.881 5.75 4.1935 5.59375 4.53157 5.50568C4.87248 5.41477 5.20771 5.36932 5.53725 5.36932C5.74748 5.36932 5.98896 5.39489 6.26168 5.44602C6.53725 5.49432 6.80288 5.59517 7.05856 5.74858C7.31708 5.90199 7.53157 6.13352 7.70202 6.44318C7.87248 6.75284 7.95771 7.16761 7.95771 7.6875V12H6.95202V11.1136H6.90089C6.83271 11.2557 6.71907 11.4077 6.55998 11.5696C6.40089 11.7315 6.18924 11.8693 5.92504 11.983C5.66083 12.0966 5.33839 12.1534 4.95771 12.1534ZM5.11111 11.25C5.50884 11.25 5.84407 11.1719 6.1168 11.0156C6.39236 10.8594 6.59975 10.6577 6.73896 10.4105C6.881 10.1634 6.95202 9.90341 6.95202 9.63068V8.71023C6.90941 8.76136 6.81566 8.80824 6.67077 8.85085C6.52873 8.89062 6.36396 8.92614 6.17646 8.95739C5.9918 8.9858 5.8114 9.01136 5.63526 9.03409C5.46197 9.05398 5.32134 9.07102 5.21339 9.08523C4.95202 9.11932 4.70771 9.17472 4.48043 9.25142C4.256 9.32528 4.07418 9.4375 3.93498 9.58807C3.79861 9.7358 3.73043 9.9375 3.73043 10.1932C3.73043 10.5426 3.85969 10.8068 4.11822 10.9858C4.37958 11.1619 4.71055 11.25 5.11111 11.25Z" fill="black"/>
<path d="M13.8611 3.27273L13.7759 9.54545H12.7873L12.702 3.27273H13.8611ZM13.2816 12.0682C13.0713 12.0682 12.8909 11.9929 12.7404 11.8423C12.5898 11.6918 12.5145 11.5114 12.5145 11.3011C12.5145 11.0909 12.5898 10.9105 12.7404 10.7599C12.8909 10.6094 13.0713 10.5341 13.2816 10.5341C13.4918 10.5341 13.6722 10.6094 13.8228 10.7599C13.9733 10.9105 14.0486 11.0909 14.0486 11.3011C14.0486 11.4403 14.0131 11.5682 13.9421 11.6847C13.8739 11.8011 13.7816 11.8949 13.6651 11.9659C13.5515 12.0341 13.4236 12.0682 13.2816 12.0682Z" fill="black"/>
<path d="M13.8611 25.4394L13.7759 31.7121H12.7873L12.702 25.4394H13.8611ZM13.2816 34.2348C13.0713 34.2348 12.8909 34.1596 12.7404 34.009C12.5898 33.8584 12.5145 33.678 12.5145 33.4678C12.5145 33.2576 12.5898 33.0772 12.7404 32.9266C12.8909 32.776 13.0713 32.7008 13.2816 32.7008C13.4918 32.7008 13.6722 32.776 13.8228 32.9266C13.9733 33.0772 14.0486 33.2576 14.0486 33.4678C14.0486 33.607 14.0131 33.7348 13.9421 33.8513C13.8739 33.9678 13.7816 34.0616 13.6651 34.1326C13.5515 34.2008 13.4236 34.2348 13.2816 34.2348Z" fill="black"/>
<path d="M3.16793 34.1667V25.4394H4.17361V28.661H4.25884C4.33271 28.5473 4.43498 28.4025 4.56566 28.2263C4.69918 28.0473 4.88952 27.8883 5.13668 27.7491C5.38668 27.607 5.72475 27.536 6.15089 27.536C6.70202 27.536 7.18782 27.6738 7.60827 27.9493C8.02873 28.2249 8.35685 28.6155 8.59265 29.1212C8.82844 29.6269 8.94634 30.2235 8.94634 30.911C8.94634 31.6042 8.82844 32.205 8.59265 32.7135C8.35685 33.2192 8.03015 33.6113 7.61254 33.8897C7.19492 34.1652 6.71339 34.303 6.16793 34.303C5.74748 34.303 5.41083 34.2334 5.15799 34.0942C4.90515 33.9522 4.71055 33.7917 4.57418 33.6127C4.43782 33.4309 4.33271 33.2803 4.25884 33.161H4.13952V34.1667H3.16793ZM4.15657 30.8939C4.15657 31.3883 4.22901 31.8243 4.3739 32.2022C4.51878 32.5772 4.73043 32.8712 5.00884 33.0843C5.28725 33.2945 5.62816 33.3996 6.03157 33.3996C6.45202 33.3996 6.80288 33.2888 7.08413 33.0672C7.36822 32.8428 7.58129 32.5417 7.72333 32.1638C7.86822 31.7831 7.94066 31.3598 7.94066 30.8939C7.94066 30.4337 7.86964 30.0189 7.72759 29.6496C7.58839 29.2775 7.37674 28.9834 7.09265 28.7675C6.8114 28.5488 6.45771 28.4394 6.03157 28.4394C5.62248 28.4394 5.27873 28.5431 5.00032 28.7505C4.72191 28.955 4.51168 29.2419 4.36964 29.6113C4.22759 29.9777 4.15657 30.4053 4.15657 30.8939Z" fill="black"/>
<line y1="18.5" x2="20.0556" y2="18.5" stroke="black"/>
</svg>
