<svg width="45" height="43" viewBox="0 0 45 43" fill="none" xmlns="http://www.w3.org/2000/svg">
<path d="M20.4076 13.251C19.9928 13.251 19.6164 13.1728 19.2783 13.0166C18.9402 12.8575 18.6718 12.6288 18.4729 12.3305C18.274 12.0294 18.1746 11.6657 18.1746 11.2396C18.1746 10.8646 18.2485 10.5606 18.3962 10.3277C18.5439 10.0919 18.7414 9.90722 18.9885 9.7737C19.2357 9.64018 19.5084 9.54075 19.8067 9.47541C20.1078 9.40722 20.4104 9.35325 20.7144 9.31347C21.1121 9.26234 21.4346 9.22398 21.6817 9.19842C21.9317 9.17001 22.1135 9.12313 22.2272 9.05779C22.3436 8.99245 22.4019 8.87881 22.4019 8.71688V8.68279C22.4019 8.26234 22.2868 7.93563 22.0567 7.70268C21.8294 7.46972 21.4843 7.35325 21.0212 7.35325C20.5411 7.35325 20.1647 7.45836 19.8919 7.66859C19.6192 7.87881 19.4275 8.10325 19.3167 8.34188L18.3621 8.00097C18.5326 7.60325 18.7598 7.29359 19.0439 7.072C19.3309 6.84756 19.6434 6.69131 19.9814 6.60325C20.3223 6.51234 20.6576 6.46688 20.9871 6.46688C21.1973 6.46688 21.4388 6.49245 21.7115 6.54359C21.9871 6.59188 22.2527 6.69273 22.5084 6.84614C22.7669 6.99955 22.9814 7.23109 23.1519 7.54075C23.3223 7.85041 23.4076 8.26518 23.4076 8.78506V13.0976H22.4019V12.2112H22.3507C22.2826 12.3532 22.1689 12.5052 22.0098 12.6672C21.8507 12.8291 21.6391 12.9669 21.3749 13.0805C21.1107 13.1942 20.7882 13.251 20.4076 13.251ZM20.561 12.3476C20.9587 12.3476 21.2939 12.2694 21.5667 12.1132C21.8422 11.9569 22.0496 11.7552 22.1888 11.5081C22.3309 11.2609 22.4019 11.001 22.4019 10.7282V9.80779C22.3593 9.85893 22.2655 9.9058 22.1206 9.94842C21.9786 9.98819 21.8138 10.0237 21.6263 10.055C21.4417 10.0834 21.2613 10.1089 21.0851 10.1317C20.9118 10.1515 20.7712 10.1686 20.6632 10.1828C20.4019 10.2169 20.1576 10.2723 19.9303 10.349C19.7059 10.4228 19.524 10.5351 19.3848 10.6856C19.2485 10.8334 19.1803 11.0351 19.1803 11.2907C19.1803 11.6402 19.3096 11.9044 19.5681 12.0834C19.8294 12.2595 20.1604 12.3476 20.561 12.3476Z" fill="black"/>
<path d="M18.6178 36.1463V27.4191H19.6235V30.6407H19.7087C19.7826 30.527 19.8848 30.3821 20.0155 30.206C20.149 30.027 20.3394 29.8679 20.5865 29.7287C20.8365 29.5867 21.1746 29.5157 21.6007 29.5157C22.1519 29.5157 22.6377 29.6534 23.0581 29.929C23.4786 30.2046 23.8067 30.5952 24.0425 31.1009C24.2783 31.6066 24.3962 32.2032 24.3962 32.8907C24.3962 33.5838 24.2783 34.1847 24.0425 34.6932C23.8067 35.1989 23.48 35.5909 23.0624 35.8694C22.6448 36.1449 22.1632 36.2827 21.6178 36.2827C21.1973 36.2827 20.8607 36.2131 20.6078 36.0739C20.355 35.9319 20.1604 35.7713 20.024 35.5924C19.8877 35.4105 19.7826 35.26 19.7087 35.1407H19.5894V36.1463H18.6178ZM19.6064 32.8736C19.6064 33.3679 19.6789 33.804 19.8238 34.1819C19.9686 34.5569 20.1803 34.8509 20.4587 35.064C20.7371 35.2742 21.078 35.3793 21.4814 35.3793C21.9019 35.3793 22.2527 35.2685 22.534 35.0469C22.8181 34.8225 23.0311 34.5213 23.1732 34.1435C23.3181 33.7628 23.3905 33.3395 23.3905 32.8736C23.3905 32.4134 23.3195 31.9986 23.1775 31.6293C23.0382 31.2571 22.8266 30.9631 22.5425 30.7472C22.2613 30.5284 21.9076 30.4191 21.4814 30.4191C21.0723 30.4191 20.7286 30.5228 20.4502 30.7301C20.1718 30.9347 19.9615 31.2216 19.8195 31.5909C19.6775 31.9574 19.6064 32.385 19.6064 32.8736Z" fill="black"/>
<line x1="10.9756" y1="20.3537" x2="31.8293" y2="20.3537" stroke="black"/>
<path d="M3.72727 21.1818C3.72727 18.7273 4.01515 16.2689 4.59091 13.8068C5.16667 11.3447 6 8.95454 7.09091 6.63636H7.86364C7.29545 7.8106 6.79924 9 6.375 10.2045C5.95076 11.4091 5.5947 12.625 5.30682 13.8523C5.02652 15.072 4.81439 16.2955 4.67045 17.5227C4.52652 18.7424 4.45455 19.9621 4.45455 21.1818C4.45455 22.8182 4.58333 24.4545 4.84091 26.0909C5.09848 27.7273 5.48106 29.3523 5.98864 30.9659C6.49621 32.5795 7.12121 34.1667 7.86364 35.7273H7.09091C6 33.3864 5.16667 30.9848 4.59091 28.5227C4.01515 26.0606 3.72727 23.6136 3.72727 21.1818Z" fill="black"/>
<path d="M38.1929 21.1818C38.1929 23.6364 37.905 26.0947 37.3293 28.5568C36.7535 31.0189 35.9202 33.4091 34.8293 35.7273H34.0565C34.6247 34.553 35.1209 33.3636 35.5452 32.1591C35.9694 30.9545 36.3217 29.7424 36.602 28.5227C36.8899 27.2955 37.1058 26.072 37.2497 24.8523C37.3936 23.625 37.4656 22.4015 37.4656 21.1818C37.4656 19.5455 37.3368 17.9091 37.0793 16.2727C36.8217 14.6364 36.4391 13.0114 35.9315 11.3977C35.4315 9.78409 34.8065 8.19697 34.0565 6.63636H34.8293C35.9202 8.97727 36.7535 11.3788 37.3293 13.8409C37.905 16.303 38.1929 18.75 38.1929 21.1818Z" fill="black"/>
</svg>
